<svg xmlns="http://www.w3.org/2000/svg" xmlns:xlink="http://www.w3.org/1999/xlink" width="144" zoomAndPan="magnify" viewBox="0 0 108 90.749999" height="121" preserveAspectRatio="xMidYMid meet" version="1.2"><defs><clipPath id="6530226934"><path d="M 1.425781 0 L 52.113281 0 L 52.113281 25.097656 L 1.425781 25.097656 Z M 1.425781 0 "/></clipPath><clipPath id="26d4a370e6"><path d="M 11.1875 0 L 2.351562 0 C 1.835938 0 1.425781 0.414062 1.425781 0.925781 C 1.433594 4.945312 1.476562 10.679688 1.515625 15.660156 L 1.519531 15.957031 C 1.546875 19.328125 1.570312 22.324219 1.578125 24.171875 C 1.578125 24.683594 1.996094 25.097656 2.507812 25.097656 L 11.03125 25.097656 C 11.542969 25.097656 11.964844 24.6875 12.023438 24.175781 C 12.433594 20.671875 15.058594 10.691406 27.292969 10.691406 C 35.414062 10.691406 41.003906 17.722656 41.511719 24.015625 C 41.550781 24.527344 41.964844 24.945312 42.480469 24.945312 L 51.152344 24.945312 C 51.664062 24.945312 52.085938 24.527344 52.070312 24.011719 C 51.625 10.675781 41.683594 0.464844 27.292969 0.464844 C 19.921875 0.464844 15.460938 2.433594 13.402344 3.574219 C 12.800781 3.90625 12.113281 3.527344 12.113281 2.835938 L 12.113281 0.929688 C 12.113281 0.417969 11.699219 0 11.1875 0 Z M 11.1875 0 "/></clipPath><clipPath id="bc798f5841"><path d="M 0.425781 0 L 51.085938 0 L 51.085938 25.097656 L 0.425781 25.097656 Z M 0.425781 0 "/></clipPath><clipPath id="2306b10219"><path d="M 10.1875 0 L 1.351562 0 C 0.835938 0 0.425781 0.414062 0.425781 0.925781 C 0.433594 4.945312 0.476562 10.679688 0.515625 15.660156 L 0.519531 15.957031 C 0.546875 19.328125 0.570312 22.324219 0.578125 24.171875 C 0.578125 24.683594 0.996094 25.097656 1.507812 25.097656 L 10.03125 25.097656 C 10.542969 25.097656 10.964844 24.6875 11.023438 24.175781 C 11.433594 20.671875 14.058594 10.691406 26.292969 10.691406 C 34.414062 10.691406 40.003906 17.722656 40.511719 24.015625 C 40.550781 24.527344 40.964844 24.945312 41.480469 24.945312 L 50.152344 24.945312 C 50.664062 24.945312 51.085938 24.527344 51.070312 24.011719 C 50.625 10.675781 40.683594 0.464844 26.292969 0.464844 C 18.921875 0.464844 14.460938 2.433594 12.402344 3.574219 C 11.800781 3.90625 11.113281 3.527344 11.113281 2.835938 L 11.113281 0.929688 C 11.113281 0.417969 10.699219 0 10.1875 0 Z M 10.1875 0 "/></clipPath><clipPath id="416629eb7f"><rect x="0" width="52" y="0" height="26"/></clipPath><clipPath id="3dc232c093"><path d="M 1.398438 35.269531 L 52.265625 35.269531 L 52.265625 60.910156 L 1.398438 60.910156 Z M 1.398438 35.269531 "/></clipPath><clipPath id="dbbea616b5"><path d="M 10.882812 60.886719 L 2.664062 60.886719 C 1.980469 60.886719 1.421875 60.339844 1.457031 59.652344 C 1.894531 51.515625 6.691406 35.324219 26.988281 35.324219 C 45.386719 35.324219 51.621094 51.40625 52.195312 59.65625 C 52.242188 60.339844 51.6875 60.886719 51 60.886719 L 42.789062 60.886719 C 42.105469 60.886719 41.554688 60.332031 41.476562 59.652344 C 40.902344 54.394531 36.722656 46.324219 26.984375 46.324219 C 16.03125 46.324219 12.664062 54.601562 12.179688 59.660156 C 12.113281 60.339844 11.566406 60.886719 10.882812 60.886719 Z M 10.882812 60.886719 "/></clipPath><clipPath id="1ee990d82a"><path d="M 0.398438 0.269531 L 51.265625 0.269531 L 51.265625 25.910156 L 0.398438 25.910156 Z M 0.398438 0.269531 "/></clipPath><clipPath id="c830ca3c41"><path d="M 9.882812 25.886719 L 1.664062 25.886719 C 0.980469 25.886719 0.421875 25.339844 0.457031 24.652344 C 0.894531 16.515625 5.691406 0.324219 25.988281 0.324219 C 44.386719 0.324219 50.621094 16.40625 51.195312 24.65625 C 51.242188 25.339844 50.6875 25.886719 50 25.886719 L 41.789062 25.886719 C 41.105469 25.886719 40.554688 25.332031 40.476562 24.652344 C 39.902344 19.394531 35.722656 11.324219 25.984375 11.324219 C 15.03125 11.324219 11.664062 19.601562 11.179688 24.660156 C 11.113281 25.339844 10.566406 25.886719 9.882812 25.886719 Z M 9.882812 25.886719 "/></clipPath><clipPath id="7849d83047"><rect x="0" width="52" y="0" height="26"/></clipPath><clipPath id="f5a98c3533"><path d="M 1.398438 63 L 52.265625 63 L 52.265625 88.636719 L 1.398438 88.636719 Z M 1.398438 63 "/></clipPath><clipPath id="b51d61e472"><path d="M 51 63.058594 L 42.785156 63.058594 C 42.105469 63.058594 41.550781 63.605469 41.488281 64.285156 C 41.003906 69.347656 37.632812 77.621094 26.675781 77.621094 C 16.941406 77.621094 12.761719 69.554688 12.183594 64.292969 C 12.109375 63.613281 11.558594 63.058594 10.875 63.058594 L 2.664062 63.058594 C 1.980469 63.058594 1.421875 63.609375 1.46875 64.292969 C 2.042969 72.539062 8.277344 88.625 26.675781 88.625 C 46.972656 88.625 51.773438 72.429688 52.207031 64.292969 C 52.242188 63.605469 51.6875 63.058594 51 63.058594 Z M 51 63.058594 "/></clipPath><clipPath id="7f63bfaee3"><path d="M 0.398438 0 L 51.265625 0 L 51.265625 25.636719 L 0.398438 25.636719 Z M 0.398438 0 "/></clipPath><clipPath id="8d0e198b00"><path d="M 50 0.0585938 L 41.785156 0.0585938 C 41.105469 0.0585938 40.550781 0.605469 40.488281 1.285156 C 40.003906 6.347656 36.632812 14.621094 25.675781 14.621094 C 15.941406 14.621094 11.761719 6.554688 11.183594 1.292969 C 11.109375 0.613281 10.558594 0.0585938 9.875 0.0585938 L 1.664062 0.0585938 C 0.980469 0.0585938 0.421875 0.609375 0.46875 1.292969 C 1.042969 9.539062 7.277344 25.625 25.675781 25.625 C 45.972656 25.625 50.773438 9.429688 51.207031 1.292969 C 51.242188 0.605469 50.6875 0.0585938 50 0.0585938 Z M 50 0.0585938 "/></clipPath><clipPath id="3444b08535"><rect x="0" width="52" y="0" height="26"/></clipPath><clipPath id="3310bf27e6"><path d="M 56.761719 2.269531 L 82.398438 2.269531 L 82.398438 53 L 56.761719 53 Z M 56.761719 2.269531 "/></clipPath><clipPath id="17a13d6de9"><path d="M 57.972656 25.253906 L 64.328125 25.253906 C 65.011719 25.253906 65.566406 25.808594 65.566406 26.492188 L 65.566406 26.648438 C 65.566406 27.332031 65.011719 27.886719 64.328125 27.886719 L 57.964844 27.886719 C 57.285156 27.886719 56.730469 28.433594 56.765625 29.113281 C 57.226562 37.539062 62.90625 52.199219 81.042969 52.953125 C 81.730469 52.984375 82.296875 52.425781 82.296875 51.738281 L 82.296875 43.691406 C 82.296875 43.003906 81.742188 42.457031 81.0625 42.390625 C 75.410156 41.855469 68.257812 37.691406 67.625 29.128906 C 67.574219 28.445312 68.136719 27.886719 68.820312 27.886719 L 75.792969 27.886719 C 76.304688 27.886719 76.722656 27.46875 76.722656 26.957031 L 76.722656 26.335938 C 76.722656 25.824219 76.308594 25.410156 75.792969 25.410156 L 68.816406 25.410156 C 68.132812 25.410156 67.613281 24.847656 67.828125 24.199219 C 68.929688 20.851562 73.703125 13.855469 81.042969 13.214844 C 81.730469 13.15625 82.300781 12.601562 82.300781 11.914062 L 82.300781 3.5625 C 82.300781 2.878906 81.75 2.320312 81.066406 2.375 C 72.496094 3.039062 57.632812 10.386719 56.773438 24.015625 C 56.730469 24.695312 57.289062 25.253906 57.972656 25.253906 Z M 57.972656 25.253906 "/></clipPath><clipPath id="f05281b643"><path d="M 0.761719 0.269531 L 26.398438 0.269531 L 26.398438 51 L 0.761719 51 Z M 0.761719 0.269531 "/></clipPath><clipPath id="500f8e548f"><path d="M 1.972656 23.253906 L 8.328125 23.253906 C 9.011719 23.253906 9.566406 23.808594 9.566406 24.492188 L 9.566406 24.648438 C 9.566406 25.332031 9.011719 25.886719 8.328125 25.886719 L 1.964844 25.886719 C 1.285156 25.886719 0.730469 26.433594 0.765625 27.113281 C 1.226562 35.539062 6.90625 50.199219 25.042969 50.953125 C 25.730469 50.984375 26.296875 50.425781 26.296875 49.738281 L 26.296875 41.691406 C 26.296875 41.003906 25.742188 40.457031 25.0625 40.390625 C 19.410156 39.855469 12.257812 35.691406 11.625 27.128906 C 11.574219 26.445312 12.136719 25.886719 12.820312 25.886719 L 19.792969 25.886719 C 20.304688 25.886719 20.722656 25.46875 20.722656 24.957031 L 20.722656 24.335938 C 20.722656 23.824219 20.308594 23.410156 19.792969 23.410156 L 12.816406 23.410156 C 12.132812 23.410156 11.613281 22.847656 11.828125 22.199219 C 12.929688 18.851562 17.703125 11.855469 25.042969 11.214844 C 25.730469 11.15625 26.300781 10.601562 26.300781 9.914062 L 26.300781 1.5625 C 26.300781 0.878906 25.75 0.320312 25.066406 0.375 C 16.496094 1.039062 1.632812 8.386719 0.773438 22.015625 C 0.730469 22.695312 1.289062 23.253906 1.972656 23.253906 Z M 1.972656 23.253906 "/></clipPath><clipPath id="d429ce8aec"><rect x="0" width="27" y="0" height="51"/></clipPath><clipPath id="137ee12328"><path d="M 56.578125 63.523438 L 107.269531 63.523438 L 107.269531 88.621094 L 56.578125 88.621094 Z M 56.578125 63.523438 "/></clipPath><clipPath id="ac9bda6717"><path d="M 57.503906 63.523438 L 66.339844 63.523438 C 66.855469 63.523438 67.269531 63.941406 67.269531 64.453125 L 67.269531 66.355469 C 67.269531 67.046875 67.957031 67.429688 68.5625 67.09375 C 70.621094 65.957031 75.078125 63.988281 82.453125 63.988281 C 96.839844 63.988281 106.785156 74.199219 107.226562 87.535156 C 107.246094 88.046875 106.824219 88.464844 106.3125 88.464844 L 97.636719 88.464844 C 97.125 88.464844 96.710938 88.050781 96.667969 87.539062 C 96.160156 81.246094 90.570312 74.210938 82.453125 74.210938 C 70.214844 74.210938 67.589844 84.195312 67.179688 87.695312 C 67.121094 88.207031 66.699219 88.621094 66.1875 88.621094 L 57.664062 88.621094 C 57.152344 88.621094 56.738281 88.207031 56.734375 87.695312 C 56.726562 85.882812 56.703125 82.953125 56.675781 79.65625 L 56.675781 79.480469 L 56.671875 79.171875 C 56.632812 74.191406 56.585938 68.464844 56.578125 64.449219 C 56.578125 63.933594 56.992188 63.523438 57.503906 63.523438 Z M 57.503906 63.523438 "/></clipPath><clipPath id="8d8bcec886"><path d="M 0.578125 0.523438 L 51.269531 0.523438 L 51.269531 25.621094 L 0.578125 25.621094 Z M 0.578125 0.523438 "/></clipPath><clipPath id="d8baacb13c"><path d="M 1.503906 0.523438 L 10.339844 0.523438 C 10.855469 0.523438 11.269531 0.941406 11.269531 1.453125 L 11.269531 3.355469 C 11.269531 4.046875 11.957031 4.429688 12.5625 4.09375 C 14.621094 2.957031 19.078125 0.988281 26.453125 0.988281 C 40.839844 0.988281 50.785156 11.199219 51.226562 24.535156 C 51.246094 25.046875 50.824219 25.464844 50.3125 25.464844 L 41.636719 25.464844 C 41.125 25.464844 40.710938 25.050781 40.667969 24.539062 C 40.160156 18.246094 34.570312 11.210938 26.453125 11.210938 C 14.214844 11.210938 11.589844 21.195312 11.179688 24.695312 C 11.121094 25.207031 10.699219 25.621094 10.1875 25.621094 L 1.664062 25.621094 C 1.152344 25.621094 0.738281 25.207031 0.734375 24.695312 C 0.726562 22.882812 0.703125 19.953125 0.675781 16.65625 L 0.675781 16.480469 L 0.671875 16.171875 C 0.632812 11.191406 0.585938 5.464844 0.578125 1.449219 C 0.578125 0.933594 0.992188 0.523438 1.503906 0.523438 Z M 1.503906 0.523438 "/></clipPath><clipPath id="86d41f4b77"><rect x="0" width="52" y="0" height="26"/></clipPath></defs><g id="5d46ebe863"><g clip-rule="nonzero" clip-path="url(#6530226934)"><g clip-rule="nonzero" clip-path="url(#26d4a370e6)"><g transform="matrix(1,0,0,1,1,-0.000000000000001434)"><g clip-path="url(#416629eb7f)"><g clip-rule="nonzero" clip-path="url(#bc798f5841)"><g clip-rule="nonzero" clip-path="url(#2306b10219)"><path style=" stroke:none;fill-rule:nonzero;fill:#5a039a;fill-opacity:1;" d="M 0.425781 0 L 51.113281 0 L 51.113281 25.097656 L 0.425781 25.097656 Z M 0.425781 0 "/></g></g></g></g></g></g><g clip-rule="nonzero" clip-path="url(#3dc232c093)"><g clip-rule="nonzero" clip-path="url(#dbbea616b5)"><g transform="matrix(1,0,0,1,1,35)"><g clip-path="url(#7849d83047)"><g clip-rule="nonzero" clip-path="url(#1ee990d82a)"><g clip-rule="nonzero" clip-path="url(#c830ca3c41)"><rect x="0" width="52" height="26" y="0" style="fill:#5a039a;fill-opacity:1;stroke:none;"/></g></g></g></g></g></g><g clip-rule="nonzero" clip-path="url(#f5a98c3533)"><g clip-rule="nonzero" clip-path="url(#b51d61e472)"><g transform="matrix(1,0,0,1,1,63)"><g clip-path="url(#3444b08535)"><g clip-rule="nonzero" clip-path="url(#7f63bfaee3)"><g clip-rule="nonzero" clip-path="url(#8d0e198b00)"><rect x="0" width="52" height="26" y="0" style="fill:#5a039a;fill-opacity:1;stroke:none;"/></g></g></g></g></g></g><g clip-rule="nonzero" clip-path="url(#3310bf27e6)"><g clip-rule="nonzero" clip-path="url(#17a13d6de9)"><g transform="matrix(1,0,0,1,56,2)"><g clip-path="url(#d429ce8aec)"><g clip-rule="nonzero" clip-path="url(#f05281b643)"><g clip-rule="nonzero" clip-path="url(#500f8e548f)"><path style=" stroke:none;fill-rule:nonzero;fill:#5a039a;fill-opacity:1;" d="M 0.761719 0.371094 L 26.300781 0.371094 L 26.300781 50.945312 L 0.761719 50.945312 Z M 0.761719 0.371094 "/></g></g></g></g></g></g><g clip-rule="nonzero" clip-path="url(#137ee12328)"><g clip-rule="nonzero" clip-path="url(#ac9bda6717)"><g transform="matrix(1,0,0,1,56,63)"><g clip-path="url(#86d41f4b77)"><g clip-rule="nonzero" clip-path="url(#8d8bcec886)"><g clip-rule="nonzero" clip-path="url(#d8baacb13c)"><path style=" stroke:none;fill-rule:nonzero;fill:#5a039a;fill-opacity:1;" d="M 0.578125 0.523438 L 51.269531 0.523438 L 51.269531 25.621094 L 0.578125 25.621094 Z M 0.578125 0.523438 "/></g></g></g></g></g></g></g></svg>