<?xml version="1.0" encoding="utf-8"?>
<!-- Generator: Adobe Illustrator 27.2.0, SVG Export Plug-In . SVG Version: 6.00 Build 0)  -->
<svg version="1.1" id="Camada_1" xmlns="http://www.w3.org/2000/svg" xmlns:xlink="http://www.w3.org/1999/xlink" x="0px" y="0px"
	 viewBox="0 0 144 121" style="enable-background:new 0 0 144 121;" xml:space="preserve">
<style type="text/css">
	.st0{clip-path:url(#SVGID_00000026871959970565154890000017486409678917806763_);}
	.st1{fill:#B6F902;}
</style>
<g id="_x35_d46ebe863">
	<g>
		<g>
			<g>
				<g>
					<g transform="matrix(1,0,0,1,1,-0.000000000000001434)">
						<g>
							<g>
								<g>
									<g>
										<g>
											<defs>
												<path id="SVGID_1_" d="M13.9,0H2.1C1.4,0,0.9,0.6,0.9,1.2c0,5.4,0.1,13,0.1,19.6l0,0.4c0,4.5,0.1,8.5,0.1,11
													c0,0.7,0.6,1.2,1.2,1.2h11.4c0.7,0,1.2-0.5,1.3-1.2c0.5-4.7,4-18,20.4-18c10.8,0,18.3,9.4,19,17.8
													c0.1,0.7,0.6,1.2,1.3,1.2h11.6c0.7,0,1.2-0.6,1.2-1.2c-0.6-17.8-13.8-31.4-33-31.4c-9.8,0-15.8,2.6-18.5,4.1
													c-0.8,0.4-1.7-0.1-1.7-1V1.2C15.2,0.6,14.6,0,13.9,0z"/>
											</defs>
											<use xlink:href="#SVGID_1_"  style="overflow:visible;fill:#B6F902;"/>
											<clipPath id="SVGID_00000053541169557354933160000008259753783097315006_">
												<use xlink:href="#SVGID_1_"  style="overflow:visible;"/>
											</clipPath>
										</g>
									</g>
								</g>
							</g>
						</g>
					</g>
				</g>
			</g>
		</g>
	</g>
	<g>
		<g>
			<g>
				<g>
					<g transform="matrix(1,0,0,1,1,35)">
						<g>
							<g>
								<g>
									<g>
										<g>
											<defs>
												<path id="SVGID_00000129171528637393378980000008706991194397992839_" d="M13.5,46.2h-11c-0.9,0-1.7-0.7-1.6-1.6
													c0.6-10.8,7-32.4,34-32.4c24.5,0,32.8,21.4,33.6,32.4c0.1,0.9-0.7,1.6-1.6,1.6H56.1c-0.9,0-1.6-0.7-1.8-1.6
													c-0.8-7-6.3-17.8-19.3-17.8c-14.6,0-19.1,11-19.7,17.8C15.2,45.5,14.4,46.2,13.5,46.2z"/>
											</defs>
											
												<use xlink:href="#SVGID_00000129171528637393378980000008706991194397992839_"  style="overflow:visible;fill:#B6F902;"/>
											<clipPath id="SVGID_00000172431057768019654650000005997328469962187907_">
												<use xlink:href="#SVGID_00000129171528637393378980000008706991194397992839_"  style="overflow:visible;"/>
											</clipPath>
											<g style="clip-path:url(#SVGID_00000172431057768019654650000005997328469962187907_);">
												<rect x="0.3" y="11.7" class="st1" width="69.3" height="34.7"/>
											</g>
										</g>
									</g>
								</g>
							</g>
						</g>
					</g>
				</g>
			</g>
		</g>
	</g>
	<g>
		<g>
			<g>
				<g>
					<g transform="matrix(1,0,0,1,1,63)">
						<g>
							<g>
								<g>
									<g>
										<g>
											<defs>
												<path id="SVGID_00000034805565849970096160000017764583576525737354_" d="M67,21.1H56c-0.9,0-1.6,0.7-1.7,1.6
													c-0.6,6.8-5.1,17.8-19.8,17.8c-13,0-18.6-10.8-19.3-17.8c-0.1-0.9-0.8-1.6-1.7-1.6H2.6c-0.9,0-1.7,0.7-1.6,1.6
													c0.8,11,9.1,32.4,33.6,32.4c27.1,0,33.5-21.6,34-32.4C68.7,21.8,67.9,21.1,67,21.1z"/>
											</defs>
											
												<use xlink:href="#SVGID_00000034805565849970096160000017764583576525737354_"  style="overflow:visible;fill:#B6F902;"/>
											<clipPath id="SVGID_00000004508088972181817280000002342161591996879516_">
												<use xlink:href="#SVGID_00000034805565849970096160000017764583576525737354_"  style="overflow:visible;"/>
											</clipPath>
										</g>
									</g>
								</g>
							</g>
						</g>
					</g>
				</g>
			</g>
		</g>
	</g>
	<g>
		<g>
			<g>
				<g>
					<g transform="matrix(1,0,0,1,56,2)">
						<g>
							<g>
								<g>
									<g>
										<g>
											<defs>
												<path id="SVGID_00000065771168081143655880000014635637706088595075_" d="M21.3,31.7h8.5c0.9,0,1.7,0.7,1.7,1.7v0.2
													c0,0.9-0.7,1.7-1.7,1.7h-8.5c-0.9,0-1.6,0.7-1.6,1.6c0.6,11.2,8.2,30.8,32.4,31.8c0.9,0,1.7-0.7,1.7-1.6V56.3
													c0-0.9-0.7-1.6-1.6-1.7c-7.5-0.7-17.1-6.3-17.9-17.7c-0.1-0.9,0.7-1.7,1.6-1.7h9.3c0.7,0,1.2-0.6,1.2-1.2v-0.8
													c0-0.7-0.6-1.2-1.2-1.2h-9.3c-0.9,0-1.6-0.8-1.3-1.6c1.5-4.5,7.8-13.8,17.6-14.6c0.9-0.1,1.7-0.8,1.7-1.7V2.7
													c0-0.9-0.7-1.7-1.6-1.6C40.7,2.1,20.8,11.8,19.7,30C19.6,30.9,20.4,31.7,21.3,31.7z"/>
											</defs>
											
												<use xlink:href="#SVGID_00000065771168081143655880000014635637706088595075_"  style="overflow:visible;fill:#B6F902;"/>
											<clipPath id="SVGID_00000066483572637907985330000009600406746367889855_">
												<use xlink:href="#SVGID_00000065771168081143655880000014635637706088595075_"  style="overflow:visible;"/>
											</clipPath>
										</g>
									</g>
								</g>
							</g>
						</g>
					</g>
				</g>
			</g>
		</g>
	</g>
	<g>
		<g>
			<g>
				<g>
					<g transform="matrix(1,0,0,1,56,63)">
						<g>
							<g>
								<g>
									<g>
										<g>
											<defs>
												<path id="SVGID_00000022553709186725949680000001555312452165782690_" d="M20.7,21.7h11.8c0.7,0,1.2,0.6,1.2,1.2v2.5
													c0,0.9,0.9,1.4,1.7,1c2.7-1.5,8.7-4.1,18.5-4.1c19.2,0,32.4,13.6,33,31.4c0,0.7-0.5,1.2-1.2,1.2H74.2
													c-0.7,0-1.2-0.6-1.3-1.2c-0.7-8.4-8.1-17.8-19-17.8c-16.3,0-19.8,13.3-20.4,18c-0.1,0.7-0.6,1.2-1.3,1.2H20.9
													c-0.7,0-1.2-0.6-1.2-1.2c0-2.4,0-6.3-0.1-10.7V43l0-0.4c-0.1-6.6-0.1-14.3-0.1-19.6C19.4,22.2,20,21.7,20.7,21.7z"/>
											</defs>
											
												<use xlink:href="#SVGID_00000022553709186725949680000001555312452165782690_"  style="overflow:visible;fill:#B6F902;"/>
											<clipPath id="SVGID_00000128476236694472916430000015342860980550028675_">
												<use xlink:href="#SVGID_00000022553709186725949680000001555312452165782690_"  style="overflow:visible;"/>
											</clipPath>
										</g>
									</g>
								</g>
							</g>
						</g>
					</g>
				</g>
			</g>
		</g>
	</g>
</g>
</svg>
