<svg width="102" height="140" viewBox="0 0 102 140" fill="none" xmlns="http://www.w3.org/2000/svg">
<rect width="102" height="140" rx="7" fill="#4B0097"/>
<rect x="2" y="2" width="99" height="136" rx="9" fill="#4B0097"/>
<rect x="27" y="44" width="53" height="47" rx="7" fill="#C7F603"/>
<rect x="22" y="48" width="53" height="47" rx="7" fill="#C7F603"/>
<rect x="25" y="46" width="53" height="47" rx="7" fill="url(#paint0_linear_240_53)"/>
<mask id="mask0_240_53" style="mask-type:luminance" maskUnits="userSpaceOnUse" x="34" y="54" width="37" height="32">
<path d="M34 54H70.5023V85.1079H34V54Z" fill="white"/>
</mask>
<g mask="url(#mask0_240_53)">
<path fill-rule="evenodd" clip-rule="evenodd" d="M55.6231 63.2158H53.4409C53.2048 63.2158 53.0122 63.0232 53.0283 62.7894C53.3217 58.103 58.4335 55.5787 61.379 55.3494C61.6129 55.3311 61.8031 55.5214 61.8031 55.7575V58.628C61.8031 58.8665 61.606 59.0545 61.3699 59.0751C58.8461 59.2952 57.2048 61.7003 56.8266 62.8536C56.7532 63.076 56.932 63.2685 57.1681 63.2685H59.5659C59.7424 63.2685 59.8845 63.4107 59.8845 63.5872V63.8005C59.8845 63.977 59.7424 64.1214 59.5659 64.1214H57.1681C56.932 64.1214 56.7395 64.314 56.7578 64.5479C56.9756 67.4918 59.4329 68.9224 61.3768 69.1082C61.6106 69.1288 61.8031 69.3191 61.8031 69.5552V72.3226C61.8031 72.5587 61.606 72.749 61.3699 72.7399C55.1349 72.4808 53.1818 67.439 53.026 64.5433C53.0122 64.3072 53.2025 64.1214 53.4386 64.1214H55.6231C55.8592 64.1214 56.0495 63.9289 56.0495 63.695V63.6423C56.0495 63.4061 55.8592 63.2158 55.6231 63.2158ZM34.3186 54.5332H37.3559C37.5324 54.5332 37.6745 54.6754 37.6745 54.8519V55.5076C37.6745 55.7438 37.9106 55.8745 38.1192 55.7598C38.8276 55.3701 40.3611 54.6914 42.8941 54.6914C47.8408 54.6914 51.2586 58.2039 51.4122 62.7894C51.4168 62.9659 51.2724 63.1081 51.0959 63.1081H48.1159C47.9394 63.1081 47.795 62.9659 47.7812 62.7894C47.607 60.625 45.6861 58.2085 42.8941 58.2085C38.6877 58.2085 37.7846 61.6407 37.6447 62.8444C37.6241 63.0209 37.4797 63.1608 37.3032 63.1608H34.3736C34.1971 63.1608 34.0527 63.0209 34.0527 62.8444C34.0504 62.2093 34.0436 61.1776 34.0321 60.0197C34.0183 58.2818 34.0023 56.2596 34 54.8496C34 54.6731 34.1421 54.5332 34.3186 54.5332ZM56.3177 76.3739H53.2804C53.1039 76.3739 52.9618 76.5137 52.9618 76.6903C52.9641 78.1003 52.9801 80.1225 52.9939 81.8604C53.003 83.0182 53.0122 84.0499 53.0145 84.685C53.0145 84.8616 53.1566 85.0037 53.3331 85.0037H56.2627C56.4392 85.0037 56.5836 84.8616 56.6042 84.685C56.7463 83.4813 57.6495 80.0491 61.8558 80.0491C64.6456 80.0491 66.5665 82.468 66.743 84.63C66.7567 84.8066 66.8989 84.9487 67.0754 84.9487H70.0576C70.2341 84.9487 70.3786 84.8066 70.3717 84.63C70.2204 80.0445 66.8003 76.5321 61.8558 76.5321C59.3206 76.5321 57.787 77.2107 57.081 77.6005C56.8724 77.7174 56.6363 77.5844 56.6363 77.3483V76.6925C56.6363 76.516 56.4942 76.3739 56.3177 76.3739ZM34.4264 75.4682H37.2505C37.4866 75.4682 37.6745 75.2779 37.6975 75.0441C37.8648 73.3039 39.0224 70.4609 42.7886 70.4609C46.1354 70.4609 47.5703 73.2351 47.7698 75.0441C47.7973 75.2779 47.9852 75.4682 48.2213 75.4682H51.0431C51.2792 75.4682 51.4695 75.2779 51.4535 75.0441C51.2563 72.2079 49.113 66.6779 42.7886 66.6779C35.8109 66.6779 34.1628 72.2446 34.0115 75.0441C34 75.2779 34.1903 75.4682 34.4264 75.4682ZM48.219 76.2134H51.0431C51.2792 76.2134 51.4695 76.4014 51.458 76.6375C51.309 79.4347 49.6586 85.0037 42.6809 85.0037C36.3565 85.0037 34.2132 79.4736 34.016 76.6375C34 76.4014 34.1903 76.2134 34.4264 76.2134H37.2505C37.4843 76.2134 37.6745 76.4037 37.6997 76.6375C37.8992 78.4465 39.3364 81.2207 42.6809 81.2207C46.4471 81.2207 47.607 78.3754 47.772 76.6352C47.795 76.4014 47.9852 76.2134 48.219 76.2134Z" fill="white"/>
</g>
<path d="M39.2681 31.4545V22.4545H40.2397V23.4943H40.359C40.4329 23.3807 40.5352 23.2358 40.6658 23.0597C40.7994 22.8807 40.9897 22.7216 41.2369 22.5824C41.4869 22.4403 41.8249 22.3693 42.2511 22.3693C42.8022 22.3693 43.288 22.5071 43.7085 22.7827C44.1289 23.0582 44.457 23.4489 44.6928 23.9545C44.9286 24.4602 45.0465 25.0568 45.0465 25.7443C45.0465 26.4375 44.9286 27.0384 44.6928 27.5469C44.457 28.0526 44.1303 28.4446 43.7127 28.723C43.2951 28.9986 42.8136 29.1364 42.2681 29.1364C41.8477 29.1364 41.511 29.0668 41.2582 28.9276C41.0053 28.7855 40.8107 28.625 40.6744 28.446C40.538 28.2642 40.4329 28.1136 40.359 27.9943H40.2738V31.4545H39.2681ZM40.2567 25.7273C40.2567 26.2216 40.3292 26.6577 40.4741 27.0355C40.619 27.4105 40.8306 27.7045 41.109 27.9176C41.3874 28.1278 41.7283 28.233 42.1317 28.233C42.5522 28.233 42.9031 28.1222 43.1843 27.9006C43.4684 27.6761 43.6815 27.375 43.8235 26.9972C43.9684 26.6165 44.0408 26.1932 44.0408 25.7273C44.0408 25.267 43.9698 24.8523 43.8278 24.483C43.6886 24.1108 43.4769 23.8168 43.1928 23.6009C42.9116 23.3821 42.5579 23.2727 42.1317 23.2727C41.7227 23.2727 41.3789 23.3764 41.1005 23.5838C40.8221 23.7884 40.6119 24.0753 40.4698 24.4446C40.3278 24.8111 40.2567 25.2386 40.2567 25.7273ZM48.5067 29.1534C48.092 29.1534 47.7156 29.0753 47.3775 28.919C47.0394 28.7599 46.771 28.5312 46.5721 28.233C46.3732 27.9318 46.2738 27.5682 46.2738 27.142C46.2738 26.767 46.3477 26.4631 46.4954 26.2301C46.6431 25.9943 46.8406 25.8097 47.0877 25.6761C47.3349 25.5426 47.6076 25.4432 47.9059 25.3778C48.207 25.3097 48.5096 25.2557 48.8136 25.2159C49.2113 25.1648 49.5337 25.1264 49.7809 25.1009C50.0309 25.0724 50.2127 25.0256 50.3263 24.9602C50.4428 24.8949 50.5011 24.7812 50.5011 24.6193V24.5852C50.5011 24.1648 50.386 23.8381 50.1559 23.6051C49.9286 23.3722 49.5835 23.2557 49.1204 23.2557C48.6403 23.2557 48.2638 23.3608 47.9911 23.571C47.7184 23.7812 47.5266 24.0057 47.4158 24.2443L46.4613 23.9034C46.6317 23.5057 46.859 23.196 47.1431 22.9744C47.43 22.75 47.7425 22.5937 48.0806 22.5057C48.4215 22.4148 48.7567 22.3693 49.0863 22.3693C49.2965 22.3693 49.538 22.3949 49.8107 22.446C50.0863 22.4943 50.3519 22.5952 50.6076 22.7486C50.8661 22.902 51.0806 23.1335 51.2511 23.4432C51.4215 23.7528 51.5067 24.1676 51.5067 24.6875V29H50.5011V28.1136H50.4499C50.3817 28.2557 50.2681 28.4077 50.109 28.5696C49.9499 28.7315 49.7383 28.8693 49.4741 28.983C49.2099 29.0966 48.8874 29.1534 48.5067 29.1534ZM48.6602 28.25C49.0579 28.25 49.3931 28.1719 49.6658 28.0156C49.9414 27.8594 50.1488 27.6577 50.288 27.4105C50.43 27.1634 50.5011 26.9034 50.5011 26.6307V25.7102C50.4585 25.7614 50.3647 25.8082 50.2198 25.8509C50.0778 25.8906 49.913 25.9261 49.7255 25.9574C49.5408 25.9858 49.3604 26.0114 49.1843 26.0341C49.011 26.054 48.8704 26.071 48.7624 26.0852C48.5011 26.1193 48.2567 26.1747 48.0295 26.2514C47.805 26.3253 47.6232 26.4375 47.484 26.5881C47.3477 26.7358 47.2795 26.9375 47.2795 27.1932C47.2795 27.5426 47.4087 27.8068 47.6673 27.9858C47.9286 28.1619 48.2596 28.25 48.6602 28.25ZM56.0014 29.1364C55.3878 29.1364 54.8594 28.9915 54.4162 28.7017C53.973 28.4119 53.6321 28.0128 53.3935 27.5043C53.1548 26.9957 53.0355 26.4148 53.0355 25.7614C53.0355 25.0966 53.1577 24.5099 53.402 24.0014C53.6491 23.4901 53.9929 23.0909 54.4332 22.804C54.8764 22.5142 55.3935 22.3693 55.9844 22.3693C56.4446 22.3693 56.8594 22.4545 57.2287 22.625C57.598 22.7955 57.9006 23.0341 58.1364 23.3409C58.3722 23.6477 58.5185 24.0057 58.5753 24.4148H57.5696C57.4929 24.1165 57.3224 23.8523 57.0582 23.6222C56.7969 23.3892 56.4446 23.2727 56.0014 23.2727C55.6094 23.2727 55.2656 23.375 54.9702 23.5795C54.6776 23.7812 54.4489 24.0668 54.2841 24.4361C54.1222 24.8026 54.0412 25.233 54.0412 25.7273C54.0412 26.233 54.1207 26.6733 54.2798 27.0483C54.4418 27.4233 54.669 27.7145 54.9616 27.9219C55.2571 28.1293 55.6037 28.233 56.0014 28.233C56.2628 28.233 56.5 28.1875 56.7131 28.0966C56.9261 28.0057 57.1065 27.875 57.2543 27.7045C57.402 27.5341 57.5071 27.3295 57.5696 27.0909H58.5753C58.5185 27.4773 58.3778 27.8253 58.1534 28.1349C57.9318 28.4418 57.6378 28.6861 57.2713 28.8679C56.9077 29.0469 56.4844 29.1364 56.0014 29.1364ZM60.983 26.6136L60.9659 25.3693H61.1705L64.0341 22.4545H65.2784L62.2273 25.5398H62.142L60.983 26.6136ZM60.0455 29V20.2727H61.0511V29H60.0455ZM64.2045 29L61.6477 25.7614L62.3636 25.0625L65.483 29H64.2045Z" fill="white"/>
<defs>
<linearGradient id="paint0_linear_240_53" x1="39.2692" y1="62.2262" x2="69.2032" y2="69.1301" gradientUnits="userSpaceOnUse">
<stop stop-color="#4B0097"/>
<stop offset="1" stop-color="#26014B"/>
</linearGradient>
</defs>
</svg>
