<svg width="102" height="140" viewBox="0 0 102 140" fill="none" xmlns="http://www.w3.org/2000/svg">
<rect width="102" height="140" rx="7" fill="#4B0097"/>
<rect x="2" y="2" width="99" height="136" rx="9" fill="white"/>
<rect x="27" y="44" width="53" height="47" rx="7" fill="#C7F603"/>
<rect x="22" y="48" width="53" height="47" rx="7" fill="#C7F603"/>
<rect x="25" y="46" width="53" height="47" rx="7" fill="url(#paint0_linear_240_52)"/>
<mask id="mask0_240_52" style="mask-type:luminance" maskUnits="userSpaceOnUse" x="34" y="54" width="37" height="32">
<path d="M34 54H70.5023V85.1079H34V54Z" fill="white"/>
</mask>
<g mask="url(#mask0_240_52)">
<path fill-rule="evenodd" clip-rule="evenodd" d="M55.6231 63.2158H53.4409C53.2048 63.2158 53.0122 63.0232 53.0283 62.7894C53.3217 58.103 58.4335 55.5787 61.379 55.3494C61.6129 55.3311 61.8031 55.5214 61.8031 55.7575V58.628C61.8031 58.8665 61.606 59.0545 61.3699 59.0751C58.8461 59.2952 57.2048 61.7003 56.8266 62.8536C56.7532 63.076 56.932 63.2685 57.1681 63.2685H59.5659C59.7424 63.2685 59.8845 63.4107 59.8845 63.5872V63.8005C59.8845 63.977 59.7424 64.1214 59.5659 64.1214H57.1681C56.932 64.1214 56.7395 64.314 56.7578 64.5479C56.9756 67.4918 59.4329 68.9224 61.3768 69.1082C61.6106 69.1288 61.8031 69.3191 61.8031 69.5552V72.3226C61.8031 72.5587 61.606 72.749 61.3699 72.7399C55.1349 72.4808 53.1818 67.439 53.026 64.5433C53.0122 64.3072 53.2025 64.1214 53.4386 64.1214H55.6231C55.8592 64.1214 56.0495 63.9289 56.0495 63.695V63.6423C56.0495 63.4061 55.8592 63.2158 55.6231 63.2158ZM34.3186 54.5332H37.3559C37.5324 54.5332 37.6745 54.6754 37.6745 54.8519V55.5076C37.6745 55.7438 37.9106 55.8745 38.1192 55.7598C38.8276 55.3701 40.3611 54.6914 42.8941 54.6914C47.8408 54.6914 51.2586 58.2039 51.4122 62.7894C51.4168 62.9659 51.2724 63.1081 51.0959 63.1081H48.1159C47.9394 63.1081 47.795 62.9659 47.7812 62.7894C47.607 60.625 45.6861 58.2085 42.8941 58.2085C38.6877 58.2085 37.7846 61.6407 37.6447 62.8444C37.6241 63.0209 37.4797 63.1608 37.3032 63.1608H34.3736C34.1971 63.1608 34.0527 63.0209 34.0527 62.8444C34.0504 62.2093 34.0436 61.1776 34.0321 60.0197C34.0183 58.2818 34.0023 56.2596 34 54.8496C34 54.6731 34.1421 54.5332 34.3186 54.5332ZM56.3177 76.3739H53.2804C53.1039 76.3739 52.9618 76.5137 52.9618 76.6903C52.9641 78.1003 52.9801 80.1225 52.9939 81.8604C53.003 83.0182 53.0122 84.0499 53.0145 84.685C53.0145 84.8616 53.1566 85.0037 53.3331 85.0037H56.2627C56.4392 85.0037 56.5836 84.8616 56.6042 84.685C56.7463 83.4813 57.6495 80.0491 61.8558 80.0491C64.6456 80.0491 66.5665 82.468 66.743 84.63C66.7567 84.8066 66.8989 84.9487 67.0754 84.9487H70.0576C70.2341 84.9487 70.3786 84.8066 70.3717 84.63C70.2204 80.0445 66.8003 76.5321 61.8558 76.5321C59.3206 76.5321 57.787 77.2107 57.081 77.6005C56.8724 77.7174 56.6363 77.5844 56.6363 77.3483V76.6925C56.6363 76.516 56.4942 76.3739 56.3177 76.3739ZM34.4264 75.4682H37.2505C37.4866 75.4682 37.6745 75.2779 37.6975 75.0441C37.8648 73.3039 39.0224 70.4609 42.7886 70.4609C46.1354 70.4609 47.5703 73.2351 47.7698 75.0441C47.7973 75.2779 47.9852 75.4682 48.2213 75.4682H51.0431C51.2792 75.4682 51.4695 75.2779 51.4535 75.0441C51.2563 72.2079 49.113 66.6779 42.7886 66.6779C35.8109 66.6779 34.1628 72.2446 34.0115 75.0441C34 75.2779 34.1903 75.4682 34.4264 75.4682ZM48.219 76.2134H51.0431C51.2792 76.2134 51.4695 76.4014 51.458 76.6375C51.309 79.4347 49.6586 85.0037 42.6809 85.0037C36.3565 85.0037 34.2132 79.4736 34.016 76.6375C34 76.4014 34.1903 76.2134 34.4264 76.2134H37.2505C37.4843 76.2134 37.6745 76.4037 37.6997 76.6375C37.8992 78.4465 39.3364 81.2207 42.6809 81.2207C46.4471 81.2207 47.607 78.3754 47.772 76.6352C47.795 76.4014 47.9852 76.2134 48.219 76.2134Z" fill="white"/>
</g>
<path d="M41.6106 19.4545L39.1902 26H38.1674L35.747 19.4545H36.8379L38.6447 24.6705H38.7129L40.5197 19.4545H41.6106ZM45.448 26.1364C44.8173 26.1364 44.2733 25.9972 43.8159 25.7188C43.3613 25.4375 43.0105 25.0455 42.7633 24.5426C42.519 24.0369 42.3968 23.4489 42.3968 22.7784C42.3968 22.108 42.519 21.517 42.7633 21.0057C43.0105 20.4915 43.3542 20.0909 43.7946 19.804C44.2377 19.5142 44.7548 19.3693 45.3457 19.3693C45.6866 19.3693 46.0233 19.4261 46.3556 19.5398C46.688 19.6534 46.9906 19.8381 47.2633 20.0938C47.536 20.3466 47.7534 20.6818 47.9153 21.0994C48.0772 21.517 48.1582 22.0312 48.1582 22.642V23.0682H43.1127V22.1989H47.1355C47.1355 21.8295 47.0616 21.5 46.9139 21.2102C46.769 20.9205 46.5616 20.6918 46.2917 20.5241C46.0247 20.3565 45.7093 20.2727 45.3457 20.2727C44.9451 20.2727 44.5985 20.3722 44.3059 20.571C44.0162 20.767 43.7931 21.0227 43.6369 21.3381C43.4806 21.6534 43.4025 21.9915 43.4025 22.3523V22.9318C43.4025 23.4261 43.4877 23.8452 43.6582 24.1889C43.8315 24.5298 44.0716 24.7898 44.3784 24.9688C44.6852 25.1449 45.0417 25.233 45.448 25.233C45.7122 25.233 45.9508 25.196 46.1639 25.1222C46.3798 25.0455 46.5659 24.9318 46.7221 24.7812C46.8784 24.6278 46.9991 24.4375 47.0843 24.2102L48.0559 24.483C47.9537 24.8125 47.7818 25.1023 47.5403 25.3523C47.2988 25.5994 47.0005 25.7926 46.6454 25.9318C46.2903 26.0682 45.8912 26.1364 45.448 26.1364ZM49.688 26V19.4545H50.6596V20.4432H50.7278C50.8471 20.1193 51.063 19.8565 51.3755 19.6548C51.688 19.4531 52.0403 19.3523 52.4324 19.3523C52.5062 19.3523 52.5985 19.3537 52.7093 19.3565C52.8201 19.3594 52.9039 19.3636 52.9608 19.3693V20.392C52.9267 20.3835 52.8485 20.3707 52.7264 20.3537C52.6071 20.3338 52.4806 20.3239 52.3471 20.3239C52.0289 20.3239 51.7449 20.3906 51.4949 20.5241C51.2477 20.6548 51.0517 20.8366 50.9068 21.0696C50.7647 21.2997 50.6937 21.5625 50.6937 21.858V26H49.688ZM58.7892 20.9205L57.8858 21.1761C57.829 21.0256 57.7452 20.8793 57.6344 20.7372C57.5265 20.5923 57.3787 20.473 57.1912 20.3793C57.0037 20.2855 56.7637 20.2386 56.4711 20.2386C56.0705 20.2386 55.7367 20.331 55.4696 20.5156C55.2054 20.6974 55.0733 20.929 55.0733 21.2102C55.0733 21.4602 55.1642 21.6577 55.3461 21.8026C55.5279 21.9474 55.812 22.0682 56.1983 22.1648L57.1699 22.4034C57.7551 22.5455 58.1912 22.7628 58.4782 23.0554C58.7651 23.3452 58.9086 23.7187 58.9086 24.1761C58.9086 24.5511 58.8006 24.8864 58.5847 25.1818C58.3716 25.4773 58.0733 25.7102 57.6898 25.8807C57.3063 26.0511 56.8603 26.1364 56.3517 26.1364C55.6841 26.1364 55.1316 25.9915 54.6941 25.7017C54.2566 25.4119 53.9796 24.9886 53.8631 24.4318L54.8176 24.1932C54.9086 24.5455 55.0804 24.8097 55.3333 24.9858C55.589 25.1619 55.9228 25.25 56.3347 25.25C56.8034 25.25 57.1756 25.1506 57.4512 24.9517C57.7296 24.75 57.8688 24.5085 57.8688 24.2273C57.8688 24 57.7892 23.8097 57.6301 23.6562C57.4711 23.5 57.2267 23.3835 56.8972 23.3068L55.8063 23.0511C55.2069 22.9091 54.7665 22.6889 54.4853 22.3906C54.2069 22.0895 54.0676 21.7131 54.0676 21.2614C54.0676 20.892 54.1713 20.5653 54.3787 20.2812C54.589 19.9972 54.8745 19.7741 55.2353 19.6122C55.5989 19.4503 56.0108 19.3693 56.4711 19.3693C57.1188 19.3693 57.6273 19.5114 57.9966 19.7955C58.3688 20.0795 58.633 20.4545 58.7892 20.9205ZM63.0815 26.1364C62.4906 26.1364 61.9721 25.9957 61.5261 25.7145C61.0829 25.4332 60.7363 25.0398 60.4863 24.5341C60.2392 24.0284 60.1156 23.4375 60.1156 22.7614C60.1156 22.0795 60.2392 21.4844 60.4863 20.9759C60.7363 20.4673 61.0829 20.0724 61.5261 19.7912C61.9721 19.5099 62.4906 19.3693 63.0815 19.3693C63.6724 19.3693 64.1895 19.5099 64.6326 19.7912C65.0787 20.0724 65.4252 20.4673 65.6724 20.9759C65.9224 21.4844 66.0474 22.0795 66.0474 22.7614C66.0474 23.4375 65.9224 24.0284 65.6724 24.5341C65.4252 25.0398 65.0787 25.4332 64.6326 25.7145C64.1895 25.9957 63.6724 26.1364 63.0815 26.1364ZM63.0815 25.233C63.5304 25.233 63.8997 25.1179 64.1895 24.8878C64.4792 24.6577 64.6937 24.3551 64.8329 23.9801C64.9721 23.6051 65.0417 23.1989 65.0417 22.7614C65.0417 22.3239 64.9721 21.9162 64.8329 21.5384C64.6937 21.1605 64.4792 20.8551 64.1895 20.6222C63.8997 20.3892 63.5304 20.2727 63.0815 20.2727C62.6326 20.2727 62.2633 20.3892 61.9735 20.6222C61.6838 20.8551 61.4693 21.1605 61.3301 21.5384C61.1909 21.9162 61.1213 22.3239 61.1213 22.7614C61.1213 23.1989 61.1909 23.6051 61.3301 23.9801C61.4693 24.3551 61.6838 24.6577 61.9735 24.8878C62.2633 25.1179 62.6326 25.233 63.0815 25.233Z" fill="black"/>
<defs>
<linearGradient id="paint0_linear_240_52" x1="39.2692" y1="62.2262" x2="69.2032" y2="69.1301" gradientUnits="userSpaceOnUse">
<stop stop-color="#4B0097"/>
<stop offset="1" stop-color="#26014B"/>
</linearGradient>
</defs>
</svg>
